# xmcd
#
# Track frame offsets:
# 150
# 17358
# 31670
# 47136
# 58815
# 77610
# 92473
# 110300
# 125161
# 143570
# 162157
# 177933
# 194034
# 215968
# 237159
#
# Disc length: 3412 seconds
#
#
# Revision: 0
# Processed by: cddbd v1.5.1PL2 Copyright (c) Steve Scherf et al.
# Submitted via: FreeRIP 2.945 
#
DISCID=c80d520f
DTITLE=Leonardo de Corpo e Alma - Leonardo de Corpo e Alma
DYEAR=2006
DGENRE=Sertaneja
TTITLE0=Uma Festa Todo Dia
TTITLE1=Latinha Na Mão
TTITLE2=Uma Palavra Só
TTITLE3=Meto o Pé Na Cara Dele
TTITLE4=Talvez
TTITLE5=Alô Goias
TTITLE6=Idas e Voltas
TTITLE7=Náufrago Ilhado
TTITLE8=Quando Um Homem Ama de Mais
TTITLE9=De Corpo e Alma
TTITLE10=Disk Paixão
TTITLE11=Por Toda Vida
TTITLE12=Me Ame ou Me Deixe
TTITLE13=Mania Nacional
TTITLE14=Sinhá Moça
EXTD=
EXTT0=
EXTT1=
EXTT2=
EXTT3=
EXTT4=
EXTT5=
EXTT6=
EXTT7=
EXTT8=
EXTT9=
EXTT10=
EXTT11=
EXTT12=
EXTT13=
EXTT14=
PLAYORDER=
